<svg version="1.1" id="Layer_1" xmlns="http://www.w3.org/2000/svg" xmlns:xlink="http://www.w3.org/1999/xlink" x="0px" y="0px"
	 width="100%" viewBox="0 0 1000 475" enable-background="new 0 0 1000 475" xml:space="preserve">

<path fill="#770b16" opacity="1.000000"
	d="
		M0,0 v470 h260
		a243,243 0,0,1 480,0
		h260 v-470
	" />

<path fill="#da3142" opacity="1.000000"
	d="
		M0,185
		A185,185 0,0,0 185,0
		H 165
		A165,165 0,0,1 0,165
		M0,310
		A310,310 0,0,0 310,0
		H 290
		A290,290 0,0,1 0,290
		M1000,185
		A185,185 0,0,1 815,0
		H 835
		A165,165 0,0,0 1000,165
		M1000,310
		A300,300 0,0,1 690,0
		H 710
		A290,290 0,0,0 1000,290
	" />

<path fill="#060001" opacity="1.000000"
	d="
		M0,175
		A175,175 0,0,0 175,0
		H 165
		A165,165 0,0,1 0,165
		M0,300
		A300,300 0,0,0 300,0
		H 290
		A290,290 0,0,1 0,290
		M1000,175
		A175,175 0,0,1 825,0
		H 835
		A165,165 0,0,0 1000,165
		M1000,300
		A300,300 0,0,1 700,0
		H 710
		A290,290 0,0,0 1000,290
	" />

<path fill="#fff" opacity="1.000000"
	stroke="#000" stroke-width="10"
	d="
		M0,460 h250
		a255,255 0,0,1 500,0
		h250 v10 h-260
		A243,243 0,0,0 260,470
		h-260 v-10
	" />

<path fill="#fff" opacity="1.000000"
	d="
		M0,460 h250
		a255,255 0,0,1 500,0
		h250 v10 h-260
		A243,243 0,0,0 260,470
		h-260 v-10
	" />

<path fill="#000" opacity="1.000000"
	d="
		M260,475
		a243,243 0,0,1 480,0
		h-90 v-10
		A153,153 0,0,0 350,475
	" />

<path fill="#fff" id="centerCircle" opacity="0.50000"
	d="
		M350,475
		A153,153 0,0,1 650,475
	" />
</svg>