<svg version="1.1" id="Layer_1" xmlns="http://www.w3.org/2000/svg" xmlns:xlink="http://www.w3.org/1999/xlink" x="0px" y="0px"
	 width="100%" viewBox="0 0 1056 591" enable-background="new 0 0 1056 591" xml:space="preserve">
<path fill="#770B16" opacity="1.000000" stroke="#770B16" stroke-width="1"
	d="
M1057.000000,351.000000 
	C1057.000000,426.020905 1057.000000,501.041779 1056.531372,576.524475 
	C977.084717,576.984863 898.106750,576.983521 819.128723,576.982056 
	C811.508423,576.981873 811.565491,576.970215 810.085022,569.530273 
	C798.303589,510.322906 770.441528,459.972351 726.883667,418.211426 
	C702.850586,395.169769 675.559692,377.106171 645.165710,363.578033 
	C610.094116,347.967987 573.258240,340.231232 535.041748,339.223175 
	C514.768494,338.688385 494.629608,340.830536 474.681183,344.835144 
	C408.242706,358.172546 353.365417,391.088318 309.986328,442.852234 
	C278.286530,480.679352 258.230194,524.289734 249.175598,572.837463 
	C248.504929,576.433350 247.060333,577.025391 243.962784,577.022461 
	C163.319321,576.946350 82.675774,576.932251 2.020480,576.447754 
	C2.005878,546.667664 1.989380,517.347290 2.003374,488.026886 
	C2.025159,442.381317 2.067654,396.735718 2.563246,351.071838 
	C20.691391,349.717834 38.458477,349.157654 56.001934,346.877167 
	C87.803391,342.743225 118.205559,333.152557 147.282913,319.765259 
	C194.740753,297.915558 235.592499,267.270996 269.430481,227.240448 
	C294.027557,198.141953 313.453979,165.969025 327.430939,130.684311 
	C343.893158,89.125725 352.880219,45.945618 352.000000,1.000000 
	C470.354218,1.000000 588.708435,1.000000 707.519653,1.468532 
	C708.307617,10.728285 708.273376,19.552269 709.058228,28.302771 
	C710.136902,40.328156 711.156799,52.426147 713.393555,64.267937 
	C720.692993,102.912437 733.864990,139.469452 753.309082,173.766739 
	C774.526306,211.191650 801.645691,243.636459 834.724243,271.041840 
	C859.945496,291.937469 887.669983,308.883057 917.759766,321.906799 
	C962.184570,341.135193 1008.447144,351.541504 1057.000000,351.000000 
z"/>
<path fill="#010000" opacity="1.000000" stroke="#010000" stroke-width="1"
	d="
M349.000000,592.000000 
	C321.312439,592.000000 293.624878,592.000000 265.470276,591.535828 
	C264.299805,581.518860 266.767303,572.416443 268.893860,563.253723 
	C301.414398,423.132965 441.133820,332.760742 582.179260,362.073639 
	C676.535767,381.683380 742.154907,437.565491 779.418823,526.310669 
	C788.182495,547.181702 794.911011,568.896423 795.000000,592.000000 
	C767.312439,592.000000 739.624878,592.000000 711.468262,591.542664 
	C710.594055,586.187317 710.967102,581.070251 709.659607,576.426270 
	C699.781738,541.339294 681.895569,511.190765 654.484192,486.729431 
	C638.389160,472.366547 620.571411,461.120239 600.693970,452.896332 
	C580.363892,444.485107 559.270813,439.606628 537.286560,439.081268 
	C528.543274,438.872345 519.714478,439.106537 511.036835,440.109589 
	C501.062775,441.262512 491.035858,442.819336 481.342407,445.377350 
	C451.446198,453.266602 425.163269,468.087006 402.544891,489.088654 
	C383.767365,506.523926 369.316437,527.293640 359.182434,550.776611 
	C353.550537,563.827148 348.137970,577.215149 349.000000,592.000000 
z"/>
<path fill="#770B16" opacity="1.000000" stroke="#770B16" stroke-width="1"
	d="
M203.000000,1.000000 
	C245.354233,1.000000 287.708466,1.000000 330.528015,1.467870 
	C330.704620,8.241336 330.418518,14.547053 330.126617,20.852505 
	C328.694153,51.795303 322.349152,81.762230 311.945038,110.877335 
	C294.049866,160.955719 265.883850,204.293488 227.043594,240.763824 
	C198.954529,267.139008 167.269913,287.845703 131.954483,303.088440 
	C90.506668,320.978027 47.179779,329.837738 2.034392,329.486145 
	C2.047286,286.708527 2.075815,244.394638 2.565675,202.066040 
	C13.604681,201.315903 24.345575,201.510712 34.732521,199.688248 
	C87.015671,190.514755 130.023849,165.127350 162.194122,122.891678 
	C189.453827,87.103012 203.525940,46.359802 203.000000,1.000000 
z"/>
<path fill="#770B16" opacity="1.000000" stroke="#770B16" stroke-width="1"
	d="
M1057.000000,202.000000 
	C1057.000000,244.354233 1057.000000,286.708466 1056.532715,329.526733 
	C875.336731,328.270325 729.818970,183.347305 729.000000,1.000000 
	C771.354248,1.000000 813.708435,1.000000 856.519226,1.468036 
	C856.441833,112.421288 948.306458,202.733505 1057.000000,202.000000 
z"/>
<path fill="#FFFFFF" opacity="1.000000" stroke="#FDFDFD" stroke-width="1"
	d="
M349.468658,592.000000 
	C348.137970,577.215149 353.550537,563.827148 359.182434,550.776611 
	C369.316437,527.293640 383.767365,506.523926 402.544891,489.088654 
	C425.163269,468.087006 451.446198,453.266602 481.342407,445.377350 
	C491.035858,442.819336 501.062775,441.262512 511.036835,440.109589 
	C519.714478,439.106537 528.543274,438.872345 537.286560,439.081268 
	C559.270813,439.606628 580.363892,444.485107 600.693970,452.896332 
	C620.571411,461.120239 638.389160,472.366547 654.484192,486.729431 
	C681.895569,511.190765 699.781738,541.339294 709.659607,576.426270 
	C710.967102,581.070251 710.594055,586.187317 710.999634,591.542664 
	C590.645752,592.000000 470.291534,592.000000 349.468658,592.000000 
z"/>
<path fill="#770B16" opacity="1.000000" stroke="#770B16" stroke-width="1"
	d="
M2.000000,1.000000 
	C62.020893,1.000000 122.041786,1.000000 182.568954,1.466182 
	C182.431564,10.533319 182.319946,19.213390 181.054703,27.721918 
	C174.620224,70.993011 155.025177,107.323479 122.291153,136.346481 
	C88.032227,166.721527 47.860352,181.919083 2.027630,181.627579 
	C2.006963,121.099129 2.003482,61.049564 2.000000,1.000000 
z"/>
<path fill="#770B16" opacity="1.000000" stroke="#770B16" stroke-width="1"
	d="
M877.000000,1.000000 
	C936.927185,1.000000 996.854431,1.000000 1057.000000,1.000000 
	C1057.000000,61.020718 1057.000000,121.041702 1056.534424,181.567719 
	C1036.742065,182.363113 1017.945312,178.964249 999.799500,172.684158 
	C966.489990,161.156082 938.376343,141.918839 916.459595,114.092865 
	C890.348816,80.942085 876.770386,43.366978 877.000000,1.000000 
z"/>
<path fill="#FDFDFD" opacity="1.000000" stroke="#FDFDFD" stroke-width="1"
	d="
M795.468628,592.000000 
	C794.911011,568.896423 788.182495,547.181702 779.418823,526.310669 
	C742.154907,437.565491 676.535767,381.683380 582.179260,362.073639 
	C441.133820,332.760742 301.414398,423.132965 268.893860,563.253723 
	C266.767303,572.416443 264.299805,581.518860 265.001587,591.535828 
	C177.645767,592.000000 90.291542,592.000000 2.471856,591.541138 
	C2.016133,587.426086 2.025870,583.769897 2.499730,580.064575 
	C85.451263,580.015442 167.938675,580.015442 250.846878,580.015442 
	C264.160858,506.727051 299.078644,446.196259 358.395996,400.842316 
	C417.916504,355.333008 485.628143,336.627106 560.011230,344.229645 
	C621.487305,350.512970 675.390625,375.062164 720.922791,416.958374 
	C768.828796,461.038879 797.856934,515.541809 808.824768,579.844788 
	C808.875671,579.855835 809.189331,579.983826 809.502991,579.983887 
	C892.002014,579.995117 974.500977,579.997437 1057.000000,580.000000 
	C1057.000000,583.993591 1057.000000,587.987244 1057.000000,592.000000 
	C969.979126,592.000000 882.958191,592.000000 795.468628,592.000000 
z"/>
<path fill="#3B0107" opacity="1.000000" stroke="#3B0107" stroke-width="1"
	d="
M351.536804,1.000000 
	C352.880219,45.945618 343.893158,89.125725 327.430939,130.684311 
	C313.453979,165.969025 294.027557,198.141953 269.430481,227.240448 
	C235.592499,267.270996 194.740753,297.915558 147.282913,319.765259 
	C118.205559,333.152557 87.803391,342.743225 56.001934,346.877167 
	C38.458477,349.157654 20.691391,349.717834 2.526366,350.600464 
	C2.034178,346.098572 2.040742,342.049774 2.512825,338.000854 
	C188.385971,337.476227 338.942657,187.228989 339.000000,1.000000 
	C343.024536,1.000000 347.049103,1.000000 351.536804,1.000000 
z"/>
<path fill="#3B0107" opacity="1.000000" stroke="#3B0107" stroke-width="1"
	d="
M1057.000000,350.536804 
	C1008.447144,351.541504 962.184570,341.135193 917.759766,321.906799 
	C887.669983,308.883057 859.945496,291.937469 834.724243,271.041840 
	C801.645691,243.636459 774.526306,211.191650 753.309082,173.766739 
	C733.864990,139.469452 720.692993,102.912437 713.393555,64.267937 
	C711.156799,52.426147 710.136902,40.328156 709.058228,28.302771 
	C708.273376,19.552269 708.307617,10.728285 707.988342,1.468532 
	C712.024536,1.000000 716.049072,1.000000 720.536804,1.468483 
	C721.534973,187.403229 871.589111,337.435272 1057.000000,338.000000 
	C1057.000000,342.024536 1057.000000,346.049103 1057.000000,350.536804 
z"/>
<path fill="#030001" opacity="1.000000" stroke="#030001" stroke-width="1"
	d="
M338.555847,1.000000 
	C338.942657,187.228989 188.385971,337.476227 2.494232,337.555298 
	C2.023424,334.723267 2.036726,332.336609 2.050028,329.949921 
	C47.179779,329.837738 90.506668,320.978027 131.954483,303.088440 
	C167.269913,287.845703 198.954529,267.139008 227.043594,240.763824 
	C265.883850,204.293488 294.049866,160.955719 311.945038,110.877335 
	C322.349152,81.762230 328.694153,51.795303 330.126617,20.852505 
	C330.418518,14.547053 330.704620,8.241336 330.996674,1.467870 
	C333.370575,1.000000 335.741119,1.000000 338.555847,1.000000 
z"/>
<path fill="#030001" opacity="1.000000" stroke="#030001" stroke-width="1"
	d="
M1057.000000,337.555847 
	C871.589111,337.435272 721.534973,187.403229 721.000000,1.468483 
	C723.370544,1.000000 725.741150,1.000000 728.555847,1.000000 
	C729.818970,183.347305 875.336731,328.270325 1056.532715,329.995392 
	C1057.000000,332.370575 1057.000000,334.741119 1057.000000,337.555847 
z"/>
<path fill="#3A0107" opacity="1.000000" stroke="#3A0107" stroke-width="1"
	d="
M202.536819,1.000000 
	C203.525940,46.359802 189.453827,87.103012 162.194122,122.891678 
	C130.023849,165.127350 87.015671,190.514755 34.732521,199.688248 
	C24.345575,201.510712 13.604681,201.315903 2.528834,201.595428 
	C2.042187,197.073593 2.053711,193.007675 2.506042,188.947662 
	C10.192581,188.307419 17.441324,187.693115 24.683481,187.009064 
	C46.077747,184.988235 66.351143,178.763016 85.384033,169.108521 
	C107.278214,158.002640 126.727486,143.550842 142.950897,124.766586 
	C154.003586,111.969223 163.337265,98.121712 170.792206,83.110512 
	C183.598541,57.323772 189.078003,29.653717 190.000000,1.000000 
	C194.024551,1.000000 198.049088,1.000000 202.536819,1.000000 
z"/>
<path fill="#3A0107" opacity="1.000000" stroke="#3A0107" stroke-width="1"
	d="
M1057.000000,201.536819 
	C948.306458,202.733505 856.441833,112.421288 856.987915,1.468036 
	C861.024536,1.000000 865.049072,1.000000 869.549561,1.444825 
	C872.305908,105.360748 951.719116,186.402283 1057.000000,189.000000 
	C1057.000000,193.024551 1057.000000,197.049088 1057.000000,201.536819 
z"/>
<path fill="#080506" opacity="1.000000" stroke="#080506" stroke-width="1"
	d="
M1057.000000,579.625000 
	C974.500977,579.997437 892.002014,579.995117 809.502991,579.983887 
	C809.189331,579.983826 808.875671,579.855835 808.824768,579.844788 
	C797.856934,515.541809 768.828796,461.038879 720.922791,416.958374 
	C675.390625,375.062164 621.487305,350.512970 560.011230,344.229645 
	C485.628143,336.627106 417.916504,355.333008 358.395996,400.842316 
	C299.078644,446.196259 264.160858,506.727051 250.846878,580.015442 
	C167.938675,580.015442 85.451263,580.015442 2.480089,579.664673 
	C2.008301,578.511780 2.020276,577.709595 2.032251,576.907471 
	C82.675774,576.932251 163.319321,576.946350 243.962784,577.022461 
	C247.060333,577.025391 248.504929,576.433350 249.175598,572.837463 
	C258.230194,524.289734 278.286530,480.679352 309.986328,442.852234 
	C353.365417,391.088318 408.242706,358.172546 474.681183,344.835144 
	C494.629608,340.830536 514.768494,338.688385 535.041748,339.223175 
	C573.258240,340.231232 610.094116,347.967987 645.165710,363.578033 
	C675.559692,377.106171 702.850586,395.169769 726.883667,418.211426 
	C770.441528,459.972351 798.303589,510.322906 810.085022,569.530273 
	C811.565491,576.970215 811.508423,576.981873 819.128723,576.982056 
	C898.106750,576.983521 977.084717,576.984863 1056.531372,576.993164 
	C1057.000000,577.750000 1057.000000,578.500000 1057.000000,579.625000 
z"/>
<path fill="#060001" opacity="1.000000" stroke="#080506" stroke-width="1"
	d="
M189.562500,1.000000 
	C189.078003,29.653717 183.598541,57.323772 170.792206,83.110512 
	C163.337265,98.121712 154.003586,111.969223 142.950897,124.766586 
	C126.727486,143.550842 107.278214,158.002640 85.384033,169.108521 
	C66.351143,178.763016 46.077747,184.988235 24.683481,187.009064 
	C17.441324,187.693115 10.192581,188.307419 2.486820,188.520828 
	C2.032800,186.094193 2.038807,184.100327 2.044815,182.106461 
	C47.860352,181.919083 88.032227,166.721527 122.291153,136.346481 
	C155.025177,107.323479 174.620224,70.993011 181.054703,27.721918 
	C182.319946,19.213390 182.431564,10.533319 183.037613,1.466182 
	C185.041672,1.000000 187.083328,1.000000 189.562500,1.000000 
z"/>
<path fill="#060001" opacity="1.000000" stroke="#080506" stroke-width="1"
	d="
M1057.000000,188.562500 
	C951.719116,186.402283 872.305908,105.360748 870.012756,1.444825 
	C872.041687,1.000000 874.083313,1.000000 876.562500,1.000000 
	C876.770386,43.366978 890.348816,80.942085 916.459595,114.092865 
	C938.376343,141.918839 966.489990,161.156082 999.799500,172.684158 
	C1017.945312,178.964249 1036.742065,182.363113 1056.534424,182.036377 
	C1057.000000,184.041672 1057.000000,186.083328 1057.000000,188.562500 
z"/>
</svg>