<svg version="1.1" id="Layer_1" xmlns="http://www.w3.org/2000/svg" xmlns:xlink="http://www.w3.org/1999/xlink" x="0px" y="0px"
	 width="100%" viewBox="0 0 1000 475" enable-background="new 0 0 1000 475" xml:space="preserve">

<path fill="#770b16" opacity="1.000000"
	d="M 0,0 v 470 h 300
	l 70,-70 l 130,-100 l 130,100 l 70,70
	L 1000,470 L1000,0" />

<path fill="#3b0107" opacity="1.000000"
	d="
		M 0,185
		A 185 185 0,0,0 185 0
		H 165
		A 165 165 0,0,1 0 165"/>

<path fill="#3b0107" opacity="1.000000"
	d="
		M 0,310
		A 310 310 0,0,0 310 0
		H 290
		A 290 290 0,0,1 0 290" />

<path fill="#3b0107" opacity="1.000000"
	d="
		M 1000,185
		A 185 185 0,0,1 815 0
		H 835
		A 165 165 0,0,0 1000 165"/>

<path fill="#3b0107" opacity="1.000000"
	d="
		M 1000,310
		A 300 300 0,0,1 690 0
		H 710
		A 290 290 0,0,0 1000 290" />

<path fill="#060001" opacity="1.000000"
	d="
		M 0,175
		A 175,175 0,0,0 175,0
		H 165
		A 165,165 0,0,1 0,165"/>

<path fill="#060001" opacity="1.000000"
	d="
		M 0,300
		A 300,300 0,0,0 300,0
		H 290
		A 290,290 0,0,1 0,290" />

<path fill="#060001" opacity="1.000000"
	d="
		M 1000,175
		A 175,175 0,0,1 825,0
		H 835
		A 165,165 0,0,0 1000,165"/>

<path fill="#060002" opacity="1.000000"
	d="
		M 1000,300
		A 300,300 0,0,1 700,0
		H 710
		A 290,290 0,0,0 1000,290" />

<circle cx="500" cy="500" r="240" fill="none" stroke="#000" stroke-width="10" />
<circle cx="500" cy="500" r="220" fill="none" stroke="#fff" stroke-width="40" />
<circle cx="500" cy="500" r="190" fill="none" stroke="#000" stroke-width="80" />

<path fill="#000"
	d="
	M -10,475 H 280 v -5 h -280
	M 1000,475 h -280 v -5 H 1010" />
<path fill="#000"
	d="
	M -10,470 H 264 v -15 h -280
	M 1000,470 h -264 v -15 H 1000" />
<path fill="#fff"
	d="
	M 5,470 H 270 v -10 h -265
	M 996,470 h -270 v -10 H 996" />

</svg>